<svg width="14" height="4" viewBox="0 0 14 4" fill="none" xmlns="http://www.w3.org/2000/svg">
<g id="Group">
<path id="Vector" d="M7.00006 2.85714C7.47344 2.85714 7.8572 2.47339 7.8572 2C7.8572 1.52661 7.47344 1.14286 7.00006 1.14286C6.52667 1.14286 6.14291 1.52661 6.14291 2C6.14291 2.47339 6.52667 2.85714 7.00006 2.85714Z" stroke="#8E8C91" stroke-width="1.71429" stroke-linecap="round" stroke-linejoin="round"/>
<path id="Vector_2" d="M1.85714 2.85714C2.33053 2.85714 2.71429 2.47339 2.71429 2C2.71429 1.52661 2.33053 1.14286 1.85714 1.14286C1.38376 1.14286 1 1.52661 1 2C1 2.47339 1.38376 2.85714 1.85714 2.85714Z" stroke="#8E8C91" stroke-width="1.71429" stroke-linecap="round" stroke-linejoin="round"/>
<path id="Vector_3" d="M12.1428 2.85714C12.6162 2.85714 13 2.47339 13 2C13 1.52661 12.6162 1.14286 12.1428 1.14286C11.6694 1.14286 11.2857 1.52661 11.2857 2C11.2857 2.47339 11.6694 2.85714 12.1428 2.85714Z" stroke="#8E8C91" stroke-width="1.71429" stroke-linecap="round" stroke-linejoin="round"/>
</g>
</svg>
