<svg width="16" height="16" viewBox="0 0 16 16" fill="none" xmlns="http://www.w3.org/2000/svg">
<g id="Icon/Mail Send Email" clip-path="url(#clip0_109_14)">
<path id="Vector" d="M6.64915 12.5623L9.14286 15.0526C9.29767 15.2074 9.48947 15.3201 9.70006 15.3799C9.91065 15.4397 10.133 15.4448 10.3461 15.3945C10.5592 15.3442 10.7559 15.2404 10.9176 15.0927C11.0792 14.945 11.2004 14.7585 11.2697 14.5509L15.3623 2.26171C15.4379 2.0355 15.4489 1.79271 15.3942 1.56057C15.3395 1.32842 15.2212 1.11612 15.0525 0.947471C14.8839 0.778824 14.6716 0.660506 14.4394 0.605792C14.2073 0.551078 13.9645 0.562132 13.7383 0.637714L1.44915 4.73371C1.24213 4.80328 1.05626 4.92447 0.909113 5.08585C0.761963 5.24723 0.658386 5.44346 0.608167 5.656C0.557949 5.86854 0.562748 6.09037 0.622111 6.30054C0.681474 6.51072 0.79344 6.70228 0.947432 6.85714L4.08 9.99314L3.97372 13.9531L6.64915 12.5623Z" stroke="white" stroke-width="1.14286" stroke-linecap="round" stroke-linejoin="round"/>
<path id="Vector_2" d="M14.9954 0.893707L4.08 9.99314" stroke="white" stroke-width="1.14286" stroke-linecap="round" stroke-linejoin="round"/>
</g>
<defs>
<clipPath id="clip0_109_14">
<rect width="16" height="16" fill="white"/>
</clipPath>
</defs>
</svg>
