<svg width="16" height="16" viewBox="0 0 16 16" fill="none" xmlns="http://www.w3.org/2000/svg">
<g id="Icon/Computer Webcam Video">
<path id="Vector" d="M14.6514 4.28571L11.4286 5.71429V4C11.4286 3.6969 11.3082 3.40621 11.0938 3.19188C10.8795 2.97755 10.5888 2.85714 10.2857 2.85714H1.71428C1.41118 2.85714 1.12049 2.97755 0.906162 3.19188C0.691834 3.40621 0.571426 3.6969 0.571426 4V12C0.571426 12.3031 0.691834 12.5938 0.906162 12.8081C1.12049 13.0225 1.41118 13.1429 1.71428 13.1429H10.2857C10.5888 13.1429 10.8795 13.0225 11.0938 12.8081C11.3082 12.5938 11.4286 12.3031 11.4286 12V10.2857L14.6514 11.7143C14.7383 11.7478 14.8321 11.7596 14.9246 11.7486C15.017 11.7376 15.1054 11.7042 15.1821 11.6512C15.2587 11.5983 15.3212 11.5274 15.3641 11.4448C15.4071 11.3622 15.4292 11.2703 15.4286 11.1771V4.82286C15.4292 4.72973 15.4071 4.63785 15.3641 4.55521C15.3212 4.47258 15.2587 4.40171 15.1821 4.34875C15.1054 4.2958 15.017 4.26237 14.9246 4.25139C14.8321 4.2404 14.7383 4.25218 14.6514 4.28571V4.28571Z" stroke="#8E8C91" stroke-width="1.14286" stroke-linecap="round" stroke-linejoin="round"/>
</g>
</svg>
